<?xml version="1.0" encoding="UTF-8"?>
<!DOCTYPE svg PUBLIC "-//W3C//DTD SVG 1.1//EN" "http://www.w3.org/Graphics/SVG/1.1/DTD/svg11.dtd">
<!-- Creator: CorelDRAW 2019 (64-Bit) -->
<svg xmlns="http://www.w3.org/2000/svg" xml:space="preserve" width="267.795mm" height="84.3746mm" version="1.1" style="shape-rendering:geometricPrecision; text-rendering:geometricPrecision; image-rendering:optimizeQuality; fill-rule:evenodd; clip-rule:evenodd"
viewBox="0 0 65503.83 20638.37"
 xmlns:xlink="http://www.w3.org/1999/xlink">
 <defs>
  <style type="text/css">
   <![CDATA[
    .fil0 {fill:#999999}
    .fil3 {fill:#C43139}
    .fil4 {fill:white}
    .fil1 {fill:#4D4D4D;fill-rule:nonzero}
    .fil2 {fill:#C43139;fill-rule:nonzero}
    .fil5 {fill:white}
   ]]>
  </style>
 </defs>
 <g id="Слой_x0020_1">
  <metadata id="CorelCorpID_0Corel-Layer"/>
  <path class="fil0" d="M4897.8 2237.52c4279.52,-3478.76 10569,-2829.63 14047.78,1449.91 3478.64,4279.52 2829.51,10569 -1450.04,14047.78 -122.96,99.99 -247.86,196.1 -374.05,289.22 -69.79,-120.35 -168.21,-219.83 -298.69,-292.72 139.42,-101.44 277.04,-206.86 412.3,-316.86 4096.53,-3330.01 4720.12,-9370.46 1390.11,-13466.99 -3330.01,-4096.53 -9370.58,-4720 -13466.99,-1389.99 -2134.32,1734.98 -3325.34,4205.75 -3506.15,6754.05 -139.28,-7.12 -279.75,0.39 -419.45,22.7 175.63,-2675.16 1420.86,-5272.76 3665.17,-7097.11z"/>
  <path class="fil1" d="M30822.84 10624.01c-253.31,126.58 -603.29,241.74 -1054.59,350 -414.51,89.79 -621.73,135.8 -621.73,135.8 -324.66,89.79 -559.56,207.28 -704.61,349.98 -126.63,198.08 -188.83,396.06 -188.83,594.12 0,269.43 80.6,485.88 244.09,647.03 161.19,145.05 396.04,216.45 702.31,216.45 504.25,0 902.64,-145.03 1190.46,-432.9 287.8,-287.8 432.9,-681.59 432.9,-1185.84l0 -674.64zm430.55 3311.13c-377.6,198.06 -778.28,320.09 -1201.96,366.1 -423.68,43.78 -796.65,66.8 -1121.36,66.8 -649.37,0 -1215.8,-174.99 -1701.61,-527.32 -485.86,-350 -729.92,-930.2 -729.92,-1740.8 0,-757.54 221,-1296.35 663.12,-1621.02 439.8,-324.64 1003.98,-541.09 1687.82,-649.35 89.82,0 198.01,-11.5 324.66,-39.11 126.66,-27.62 269.41,-50.68 432.9,-69.08 792.13,-105.94 1188.19,-340.78 1188.19,-699.98 0,-271.76 -140.5,-446.74 -419.13,-527.32 -278.58,-80.57 -534.17,-122.03 -769.06,-122.03 -250.96,0 -476.64,36.84 -674.64,110.51 -198.06,73.7 -340.81,211.85 -430.63,414.46l-1807.53 0c71.35,-559.56 322.39,-1020.07 755.21,-1381.55 485.88,-414.46 1178.97,-621.69 2077.01,-621.69 1008.58,0 1763.79,170.39 2268.09,513.47 522.65,359.15 782.9,863.48 782.9,1510.5l0 2454.6c0,720.7 -131.28,1282.53 -391.46,1687.82 -262.51,402.94 -573.38,695.36 -932.6,874.97zm2394.21 -8989.44l974.01 0c250.96,0 467.41,85.27 649.3,255.64 179.59,172.67 269.41,382.22 269.41,635.53l0 8393.02 -1892.72 0 0 -9284.19zm2776.38 6907.89l1835.19 0c16.12,359.23 151.92,628.63 402.96,808.25 271.68,179.61 630.91,269.41 1079.93,269.41 324.64,0 603.27,-62.18 835.84,-188.83 216.45,-126.66 324.66,-297.02 324.66,-511.2 0,-324.66 -377.62,-566.45 -1135.16,-727.6 -324.71,-55.3 -566.45,-108.26 -729.95,-163.49 -955.59,-232.57 -1593.4,-511.2 -1918.11,-833.59 -361.48,-324.64 -541.09,-755.21 -541.09,-1294.03 0,-683.86 260.19,-1250.37 782.88,-1699.34 541.11,-412.16 1243.42,-619.39 2106.9,-619.39 937.15,0 1683.19,207.23 2240.47,621.69 522.65,449.02 801.3,1033.84 835.86,1754.62l-1160.57 0c-340.76,0 -600.94,-154.35 -780.56,-462.86l0 0c-73.67,-73.7 -145.1,-145.05 -216.45,-218.72 -216.45,-163.49 -513.47,-244.07 -891.14,-244.07 -359.23,0 -628.56,52.96 -810.52,161.15 -161.15,108.26 -241.79,271.76 -241.79,488.13 0,287.87 467.49,529.67 1404.64,727.67 108.19,36.84 204.95,64.45 285.53,80.57 80.57,18.44 156.55,27.62 227.95,27.62 921.06,234.89 1558.91,504.32 1920.39,810.57 343.11,324.64 513.5,757.56 513.5,1296.38 0,792.05 -287.83,1404.57 -865.82,1837.47 -541.09,396.06 -1349.33,594.07 -2429.26,594.07 -1026.95,0 -1791.38,-207.23 -2293.36,-621.69 -522.72,-414.51 -782.9,-1017.8 -782.9,-1812.2l0 -80.57zm11535.57 -1229.58c-253.31,126.58 -603.29,241.74 -1054.59,350 -414.51,89.79 -621.73,135.8 -621.73,135.8 -324.66,89.79 -559.56,207.28 -704.61,349.98 -126.63,198.08 -188.83,396.06 -188.83,594.12 0,269.43 80.6,485.88 244.09,647.03 161.19,145.05 396.04,216.45 702.31,216.45 504.25,0 902.64,-145.03 1190.46,-432.9 287.8,-287.8 432.9,-681.59 432.9,-1185.84l0 -674.64zm430.55 3311.13c-377.6,198.06 -778.28,320.09 -1201.96,366.1 -423.68,43.78 -796.65,66.8 -1121.36,66.8 -649.37,0 -1215.8,-174.99 -1701.61,-527.32 -485.86,-350 -729.92,-930.2 -729.92,-1740.8 0,-757.54 221,-1296.35 663.12,-1621.02 439.8,-324.64 1003.98,-541.09 1687.82,-649.35 89.82,0 198.01,-11.5 324.66,-39.11 126.66,-27.62 269.41,-50.68 432.9,-69.08 792.13,-105.94 1188.19,-340.78 1188.19,-699.98 0,-271.76 -140.5,-446.74 -419.13,-527.32 -278.58,-80.57 -534.17,-122.03 -769.06,-122.03 -250.96,0 -476.64,36.84 -674.64,110.51 -198.06,73.7 -340.81,211.85 -430.63,414.46l-1807.53 0c71.35,-559.56 322.39,-1020.07 755.21,-1381.55 485.88,-414.46 1178.97,-621.69 2077.01,-621.69 1008.58,0 1763.79,170.39 2268.09,513.47 522.65,359.15 782.9,863.48 782.9,1510.5l0 2454.6c0,720.7 -131.28,1282.53 -391.46,1687.82 -262.51,402.94 -573.38,695.36 -932.6,874.97zm2311.31 294.75l0 -7396.02c0,-647.03 170.37,-1132.88 513.47,-1457.55 324.64,-306.24 854.23,-458.24 1593.4,-458.24 179.61,0 324.71,9.22 432.9,27.62 198.01,0 350,9.22 458.24,27.69l0 1478.26 -485.86 0c-251.01,0 -432.9,36.84 -538.81,108.19 -89.82,73.67 -135.88,218.77 -135.88,437.52l0 490.46 1160.55 0 0 405.24c0,271.76 -89.79,492.8 -269.41,663.19 -179.61,172.67 -386.82,257.86 -621.73,257.86l-269.41 0 0 5415.78 -1837.47 0zm8007.92 -3605.88c-253.29,126.58 -603.29,241.74 -1054.59,350 -414.51,89.79 -621.73,135.8 -621.73,135.8 -324.64,89.79 -559.53,207.28 -704.58,349.98 -126.66,198.08 -188.83,396.06 -188.83,594.12 0,269.43 80.57,485.88 244.07,647.03 161.22,145.05 396.06,216.45 702.31,216.45 504.28,0 902.66,-145.03 1190.46,-432.9 287.8,-287.8 432.9,-681.59 432.9,-1185.84l0 -674.64zm430.58 3311.13c-377.62,198.06 -778.28,320.09 -1201.96,366.1 -423.68,43.78 -796.68,66.8 -1121.39,66.8 -649.35,0 -1215.78,-174.99 -1701.59,-527.32 -485.86,-350 -729.95,-930.2 -729.95,-1740.8 0,-757.54 221.02,-1296.35 663.15,-1621.02 439.8,-324.64 1003.95,-541.09 1687.82,-649.35 89.79,0 198.01,-11.5 324.64,-39.11 126.66,-27.62 269.43,-50.68 432.92,-69.08 792.1,-105.94 1188.16,-340.78 1188.16,-699.98 0,-271.76 -140.48,-446.74 -419.13,-527.32 -278.58,-80.57 -534.14,-122.03 -769.03,-122.03 -250.96,0 -476.66,36.84 -674.64,110.51 -198.06,73.7 -340.83,211.85 -430.63,414.46l-1807.53 0c71.35,-559.56 322.36,-1020.07 755.21,-1381.55 485.86,-414.46 1178.94,-621.69 2076.98,-621.69 1008.58,0 1763.79,170.39 2268.12,513.47 522.65,359.15 782.88,863.48 782.88,1510.5l0 2454.6c0,720.7 -131.25,1282.53 -391.44,1687.82 -262.53,402.94 -573.4,695.36 -932.6,874.97zm2311.29 294.75l0 -3483.85c0,-702.31 103.64,-1291.8 310.87,-1768.46 207.23,-478.91 490.43,-861.13 851.98,-1148.98 343.08,-269.43 743.69,-467.41 1201.96,-594.07 458.24,-126.66 930.25,-188.83 1416.11,-188.83 36.86,0 80.6,0 135.83,0 52.96,0 99.02,0 135.88,0l0 1920.39 -621.73 0c-522.65,0 -909.49,126.66 -1160.5,377.67 -250.96,253.24 -377.62,647.03 -377.62,1188.12l0 3698.02 -1892.77 0z"/>
  <path class="fil2" d="M28729.25 18193.52c-208.26,209.21 -462.37,313.8 -762.41,313.8 -300.03,0 -553.69,-104.59 -760.96,-313.8 -207.23,-209.26 -310.87,-462.91 -310.87,-760.96 0,-300.01 103.64,-554.15 310.87,-762.41 207.28,-208.23 460.93,-312.36 760.96,-312.36 300.03,0 554.15,104.13 762.41,312.36 208.23,208.26 312.36,462.4 312.36,762.41 0,298.05 -104.13,551.7 -312.36,760.96zm-1332.38 -188.05c153,154.98 342.98,232.45 569.98,232.45 226.99,0 416.98,-77.47 569.98,-232.45 152.95,-154.91 229.46,-345.92 229.46,-572.91 0,-228.97 -76.51,-420.91 -229.46,-575.85 -153,-154.98 -342.98,-232.45 -569.98,-232.45 -226.99,0 -416.98,77.47 -569.98,232.45 -152.95,154.93 -229.46,346.87 -229.46,575.85 0,226.99 76.51,418 229.46,572.91zm2741.33 -1055.47c173.67,0 312.85,54.74 417.44,164.28 104.67,109.56 156.96,258.08 156.96,445.6l0 909 -257.62 0 0 -894.15c0,-120.42 -32.58,-213.69 -97.69,-279.83 -65.14,-66.14 -154.93,-99.16 -269.41,-99.16 -128.34,0 -231.98,39.97 -310.94,119.88 -78.91,79.99 -118.39,202.85 -118.39,368.62l0 784.64 -257.59 0 0 -1480.42 257.59 0 0 213.15c104.62,-167.72 264.51,-251.6 479.64,-251.6zm987 1518.87l0 -2161.39 257.62 0 0 2161.39 -257.62 0zm835.96 -1749.82c-49.29,0 -90.75,-16.78 -124.31,-50.39 -33.54,-33.54 -50.32,-73.99 -50.32,-121.37 0,-47.38 16.78,-88.3 50.32,-122.86 33.56,-34.51 75.02,-51.83 124.31,-51.83 47.4,0 87.91,17.32 121.45,51.83 33.56,34.56 50.32,75.48 50.32,122.86 0,47.38 -16.76,87.84 -50.32,121.37 -33.54,33.61 -74.04,50.39 -121.45,50.39zm-130.23 1749.82l0 -1480.42 257.62 0 0 1480.42 -257.62 0zm1442.97 -1518.87c173.67,0 312.85,54.74 417.44,164.28 104.67,109.56 156.96,258.08 156.96,445.6l0 909 -257.59 0 0 -894.15c0,-120.42 -32.61,-213.69 -97.72,-279.83 -65.11,-66.14 -154.93,-99.16 -269.41,-99.16 -128.34,0 -231.98,39.97 -310.94,119.88 -78.88,79.99 -118.39,202.85 -118.39,368.62l0 784.64 -257.59 0 0 -1480.42 257.59 0 0 213.15c104.62,-167.72 264.51,-251.6 479.64,-251.6zm1167.64 897.09c25.63,132.26 86.32,234.89 182.06,307.93 95.74,73.01 213.69,109.56 353.82,109.56 195.41,0 337.53,-72.06 426.37,-216.16l219.09 124.38c-144.1,223.03 -361.26,334.52 -651.4,334.52 -234.89,0 -425.83,-73.5 -572.91,-220.51 -147.06,-147.08 -220.58,-333.1 -220.58,-558.11 0,-223.1 72.08,-408.64 216.16,-556.67 144.1,-148.03 330.63,-222.03 559.61,-222.03 217.11,0 394.28,76.44 531.48,229.44 137.17,152.95 205.79,337.06 205.79,552.19 0,37.5 -3.01,75.95 -8.93,115.45l-1240.53 0zm512.2 -654.34c-138.2,0 -252.68,38.99 -343.45,116.95 -90.82,78 -147.08,182.13 -168.75,312.36l988.91 0c-21.75,-140.13 -76.98,-246.71 -165.84,-319.72 -88.84,-73.04 -192.48,-109.58 -310.87,-109.58zm2645 -242.75c207.28,0 383.95,75.48 530.01,226.45 146.05,151.02 219.09,335.06 219.09,552.24 0,217.11 -73.04,401.15 -219.09,552.17 -146.05,150.97 -322.73,226.45 -530.01,226.45 -244.73,0 -431.29,-97.65 -559.56,-293.06l0 254.61 -257.62 0 0 -2072.55 257.62 0 0 846.75c128.27,-195.41 314.83,-293.06 559.56,-293.06zm-32.53 1308.66c148.03,0 272.42,-50.8 373.05,-152.49 100.65,-101.66 150.97,-227.46 150.97,-377.47 0,-150.06 -50.32,-275.89 -150.97,-377.55 -100.63,-101.68 -225.01,-152.49 -373.05,-152.49 -150.02,0 -275.4,50.8 -376.05,152.49 -100.65,101.66 -150.97,227.48 -150.97,377.55 0,150.02 50.32,275.82 150.97,377.47 100.65,101.68 226.04,152.49 376.05,152.49zm2393.38 23.65c-152,150.02 -336.58,225.01 -553.69,225.01 -217.11,0 -401.22,-75 -552.19,-225.01 -151.02,-150.02 -226.5,-334.52 -226.5,-553.61 0,-219.14 75.48,-403.67 226.5,-553.69 150.97,-150.02 335.08,-225.01 552.19,-225.01 217.11,0 401.69,75 553.69,225.01 151.97,150.02 227.95,334.54 227.95,553.69 0,219.09 -75.97,403.6 -227.95,553.61zm-553.69 -26.59c148.03,0 272.42,-50.39 373.05,-151.04 100.7,-100.65 151.04,-225.97 151.04,-375.98 0,-150.06 -50.34,-275.4 -151.04,-376.05 -100.63,-100.65 -225.01,-151.04 -373.05,-151.04 -146.05,0 -269.41,50.39 -370.11,151.04 -100.65,100.65 -150.97,225.99 -150.97,376.05 0,150.02 50.32,275.33 150.97,375.98 100.7,100.65 224.06,151.04 370.11,151.04zm2390.44 26.59c-152,150.02 -336.58,225.01 -553.69,225.01 -217.11,0 -401.22,-75 -552.19,-225.01 -151.02,-150.02 -226.5,-334.52 -226.5,-553.61 0,-219.14 75.48,-403.67 226.5,-553.69 150.97,-150.02 335.08,-225.01 552.19,-225.01 217.11,0 401.69,75 553.69,225.01 151.97,150.02 227.95,334.54 227.95,553.69 0,219.09 -75.97,403.6 -227.95,553.61zm-553.69 -26.59c148.03,0 272.42,-50.39 373.05,-151.04 100.7,-100.65 151.04,-225.97 151.04,-375.98 0,-150.06 -50.34,-275.4 -151.04,-376.05 -100.63,-100.65 -225.01,-151.04 -373.05,-151.04 -146.05,0 -269.41,50.39 -370.11,151.04 -100.65,100.65 -150.99,225.99 -150.99,376.05 0,150.02 50.34,275.33 150.99,375.98 100.7,100.65 224.06,151.04 370.11,151.04zm2393.38 213.15l-319.75 0 -675.06 -701.72 0 701.72 -257.62 0 0 -2072.55 257.62 0 0 1246.48 639.54 -654.34 331.59 0 -707.64 716.52 731.32 763.9zm424.44 -1749.82c-49.29,0 -90.75,-16.78 -124.31,-50.39 -33.54,-33.54 -50.32,-73.99 -50.32,-121.37 0,-47.38 16.78,-88.3 50.32,-122.86 33.56,-34.51 75.02,-51.83 124.31,-51.83 47.4,0 87.89,17.32 121.45,51.83 33.56,34.56 50.32,75.48 50.32,122.86 0,47.38 -16.76,87.84 -50.32,121.37 -33.56,33.61 -74.04,50.39 -121.45,50.39zm-130.23 1749.82l0 -1480.42 257.59 0 0 1480.42 -257.59 0zm1442.97 -1518.87c173.67,0 312.85,54.74 417.44,164.28 104.67,109.56 156.96,258.08 156.96,445.6l0 909 -257.62 0 0 -894.15c0,-120.42 -32.58,-213.69 -97.69,-279.83 -65.14,-66.14 -154.93,-99.16 -269.41,-99.16 -128.34,0 -231.98,39.97 -310.94,119.88 -78.91,79.99 -118.39,202.85 -118.39,368.62l0 784.64 -257.59 0 0 -1480.42 257.59 0 0 213.15c104.62,-167.72 264.51,-251.6 479.64,-251.6zm2215.75 38.45l254.61 0 0 1418.24c0,219.09 -73.99,389.34 -222.03,510.71 -148.03,121.45 -325.71,182.13 -532.94,182.13 -165.84,0 -308.96,-31.09 -429.38,-93.27 -120.35,-62.2 -211.17,-151.51 -272.34,-267.99l225.01 -127.29c80.94,165.82 241.79,248.74 482.63,248.74 153.9,0 274.86,-40.51 362.7,-121.45 87.81,-80.87 131.74,-191.45 131.74,-331.59l0 -210.24c-130.3,197.42 -315.86,296.09 -556.62,296.09 -211.24,0 -389.9,-75.02 -535.95,-225.04 -146.05,-150.02 -219.09,-332.54 -219.09,-547.74 0,-215.13 73.04,-397.26 219.09,-546.25 146.05,-149.06 324.71,-223.52 535.95,-223.52 242.75,0 428.28,97.65 556.62,293.06l0 -254.61zm-903.08 1107.37c100.7,100.63 226.04,150.97 376.05,150.97 150.02,0 275.33,-50.34 375.98,-150.97 100.7,-100.7 151.04,-226.04 151.04,-376.05 0,-148.03 -50.34,-272.42 -151.04,-373.05 -100.65,-100.65 -225.97,-150.99 -375.98,-150.99 -150.02,0 -275.35,50.34 -376.05,150.99 -100.65,100.63 -150.97,225.01 -150.97,373.05 0,150.02 50.32,275.35 150.97,376.05zm1822.01 -707.66c0,57.21 28.59,103.17 85.86,137.69 57.21,34.56 126.29,62.18 207.23,82.9 80.94,20.74 161.88,44.4 242.82,71.06 80.94,26.66 150.02,72.08 207.23,136.17 57.26,64.16 85.9,146.62 85.9,247.25 0,134.26 -51.83,241.79 -155.47,322.73 -103.64,80.94 -236.41,121.37 -398.22,121.37 -144.07,0 -267.5,-31.55 -370.11,-94.71 -102.64,-63.13 -175.65,-147.08 -219.09,-251.67l222.03 -127.32c23.73,71.06 68.12,127.32 133.24,168.78 65.19,41.46 143.12,62.18 233.94,62.18 84.9,0 154.93,-16.29 210.21,-48.87 55.26,-32.53 82.92,-83.41 82.92,-152.49 0,-57.21 -28.64,-103.1 -85.9,-137.66 -57.21,-34.56 -126.29,-62.18 -207.23,-82.92 -80.94,-20.72 -161.88,-44.86 -242.82,-72.55 -80.94,-27.62 -149.99,-73.01 -207.23,-136.17 -57.26,-63.13 -85.9,-144.07 -85.9,-242.82 0,-128.25 49.85,-233.87 149.55,-316.79 99.68,-82.92 224.52,-124.31 374.54,-124.31 120.42,0 227.48,27.13 321.24,81.4 93.76,54.28 164.32,129.76 211.73,226.45l-216.16 121.45c-53.27,-126.36 -158.89,-189.49 -316.81,-189.49 -73.01,0 -135.22,17.24 -186.56,51.83 -51.27,34.49 -76.93,83.39 -76.93,146.52z"/>
  <circle class="fil3" transform="matrix(1.54922 -3.97769 3.97769 1.54922 1511.18 12055.3)" r="353.92"/>
  <circle class="fil0" transform="matrix(1.34827 -3.46175 3.46175 1.34827 3558.8 15758.9)" r="353.92"/>
  <circle class="fil3" transform="matrix(1.16424 -2.98923 2.98923 1.16424 6284.71 18424.6)" r="353.92"/>
  <circle class="fil3" transform="matrix(0.987572 -2.53564 2.53564 0.987572 9340.38 19627.3)" r="353.92"/>
  <circle class="fil3" transform="matrix(0.776474 -1.99364 1.99364 0.776474 12032.8 19880.9)" r="353.92"/>
  <circle class="fil3" transform="matrix(0.583891 -1.49917 1.49917 0.583891 14341.9 19384.4)" r="353.92"/>
  <circle class="fil3" transform="matrix(0.282416 -0.725118 0.725118 0.282416 16149.7 18715.9)" r="353.92"/>
  <path class="fil3" d="M11312.2 9918.89l-6394.27 -3715.61c652.31,-1122.32 1588.48,-2053.33 2714.57,-2699.28 3455.72,-1982.3 7860.64,-870.86 9962.31,2513.55l-6282.6 3901.34z"/>
  <path class="fil4" d="M12679.76 4571.58c-26.61,-260.23 -69.03,-462.86 -136.12,-542.51 -276.6,-327.48 -2214.18,-351.45 -2434.18,0 -53.81,86.1 -91.56,288.02 -116.87,542.95 -81.72,9.61 -145.37,78.42 -145.37,162.66l0 318.79c0,70.89 44.91,130.67 107.63,153.98 -14.85,502.12 -2.81,1025.97 19.45,1286.52 0,201.11 135.09,167.75 135.09,167.75l126.66 0 0 217.11c0,86.1 88.74,155.79 198.1,155.79 109.48,0 198.25,-69.69 198.25,-155.79l0 -217.11 1473.35 0 0 217.11c0,86.1 88.69,155.79 198.18,155.79 109.34,0 198.1,-69.69 198.1,-155.79l0 -217.11 41.61 0c0,0 159.02,21.82 169.19,-72.89 0,-259.82 16.36,-835.64 2.89,-1379.15 66.65,-20.89 115.31,-82.31 115.31,-156.2l0 -318.79c0.07,-86.25 -66.68,-156.2 -151.26,-163.1zm-2097.09 -495.79l1487.78 0 0 225.08 -1487.78 0 0 -225.08zm21.23 2329.56c-116.8,0 -211.44,-94.71 -211.44,-211.53 0,-116.73 94.64,-211.36 211.44,-211.36 116.82,0 211.53,94.64 211.53,211.36 0,116.82 -94.64,211.53 -211.53,211.53zm1458.57 0c-116.75,0 -211.58,-94.71 -211.58,-211.53 0,-116.73 94.78,-211.36 211.58,-211.36 116.82,0 211.46,94.64 211.46,211.36 0.07,116.82 -94.64,211.53 -211.46,211.53zm268.84 -925.61l-2009.54 0 0 -1054.02 2009.54 0 0 1054.02z"/>
  <path class="fil3" d="M11312.2 9918.89l-20.62 7395.36c-2642.16,-7.39 -5079.62,-1423.77 -6394.27,-3715.63 -1268.83,-2211.95 -1308.58,-4921.73 -105.06,-7169.98l6519.94 3490.25z"/>
  <path class="fil3" d="M11312.2 9918.89l6414.91 -3679.7c2032.22,3542.8 807.61,8062.39 -2735.19,10094.61 -1050.21,602.41 -2232.26,937.71 -3442.36,976.7l-237.36 -7391.62z"/>
  <path class="fil5" d="M11311.64 7456.61c1360.02,0 2462.6,1102.55 2462.6,2462.58 0,1360.02 -1102.58,2462.6 -2462.6,2462.6 -1360,0 -2462.58,-1102.58 -2462.58,-2462.6 0,-1360.02 1102.58,-2462.58 2462.58,-2462.58z"/>
  <path class="fil4" d="M16675.17 11772.64c154.54,-206.86 247.05,-421.65 247.49,-575.09 -0.2,-49.68 -10.15,-88.5 -29.11,-117.43 -2.01,-3.55 -7.46,-12.79 -17.1,-21.92 -9.59,-9.52 -18.2,-14.6 -20.06,-15.63 -30.36,-20.25 -69.37,-30.01 -119.07,-30.01 -153.05,0.24 -367.88,92.68 -574.82,247.49 -167.26,125.16 -334.52,301.43 -566.06,545.52 -39.28,41.39 -80.62,84.9 -124.33,130.55l-448.51 -134.41 1.35 -1.3c18.64,-18.83 29.25,-44.74 28.99,-70.2 0.27,-26.86 -10.59,-52.76 -29.3,-71.4l-81.01 -81.14c-18.69,-18.83 -44.54,-29.62 -71.28,-29.62 -27,0 -52.2,10.4 -71.03,29.43l-121.18 121.25 -64.16 -19.15c13.82,-17.56 21.48,-39.48 21.21,-61.08 0.27,-27.25 -10.27,-52.64 -29.23,-71.47l-81.38 -81.4c-18.59,-18.64 -44.3,-29.3 -71.3,-29.3 -26.88,0 -52,10.49 -70.64,29.45l-111.22 111.15 -456.02 -136.61c-10.22,-3.03 -21.04,-4.62 -32.61,-4.62 -32.39,0.39 -62.42,12.4 -84.34,34.12l-160.31 160.39c-18.2,18.2 -28.42,42.83 -28.23,66.17 -0.56,34.39 18.47,66.14 48.92,82.46l958.99 535.76c4.7,2.62 18.25,12.65 23.26,17.66l273.39 273.34c-255.71,269.41 -483.53,530.35 -661.09,757.32 -16.58,21.08 -32.26,41.66 -47.7,62.03l-741.88 -67.36c-3.6,-0.44 -7.66,-0.76 -12.79,-0.76 -34.02,0.68 -67.24,14.14 -91.92,37.99l-74.78 74.7c-18.44,18.05 -28.86,42.49 -28.59,66.07 -0.59,36.01 21.21,69.3 53.94,83.9l521.91 247.88c4.5,2.25 16.19,10.54 19.98,14.33l43.32 43c-13.55,38.18 -20.42,71.28 -20.82,100.36 -0.12,38.87 12.4,72.18 36.4,96.15l1.86 1.61 0.51 0.39c24.61,23.85 56.5,35.98 95.96,35.98 28.42,-0.44 61.2,-7.19 99.53,-20.69l43.96 43.91c3.42,3.6 11.57,15.04 13.7,19.62l247.37 520.76c15.12,33.22 47.7,54.77 83.17,54.77l0.51 0c24.56,0 48.02,-9.83 65.97,-27.84l76.54 -76.83c22.7,-23.9 36.08,-56.87 36.59,-91.65 0,-4.23 -0.2,-7.53 -0.32,-9.32l-67.58 -744.6c20.33,-15.31 40.9,-31.06 62.03,-47.5 227.31,-177.83 488.3,-405.82 757.2,-661.16l273.59 273.83c4.45,4.26 14.8,17.83 17.83,23.48l534.7 957.23c16.32,30.92 47.77,50.02 82.6,50.02 24.88,0 48.53,-9.83 66.65,-28.08l161.49 -161.37c20.96,-21.92 32.73,-51.68 33.05,-84.22 0,-10.91 -1.54,-21.53 -4.38,-31.48l-136.61 -456.16 111.15 -111.34c18.71,-18.59 29.33,-44.42 29.33,-70.96 0,-26.69 -10.35,-51.76 -29.18,-70.86l-81.53 -81.43c-18.64,-18.71 -44.42,-29.38 -70.96,-29.38 -22.5,0 -44.47,7.51 -61.64,21.08l-19.1 -63.89 121.3 -121.32c18.64,-18.69 29.25,-44.54 29.25,-71.16 0,-26.81 -10.35,-51.93 -29.25,-70.76l-81.14 -81.14c-18.71,-18.96 -44.66,-29.69 -71.35,-29.69 -26.81,0 -52.79,10.86 -71.11,29.57l-0.83 0.76 -134.36 -448.43c46.43,-44.22 90.45,-86.35 132.58,-126 243.21,-230.81 418.84,-397.43 543.66,-564.3z"/>
  <path class="fil4" d="M8245.28 13658.88l-7.29 -14.58c0,-4.87 1.22,-7.31 3.64,-7.31 2.42,0 3.64,-2.42 3.64,-7.29 77.81,-29.18 148.33,-68.07 211.56,-116.73 63.21,-48.63 106.99,-119.12 131.3,-211.53l3.64 -25.54c2.42,-17.02 6.07,-32.83 10.93,-47.4l0 -1903.92c0,-48.63 -13.38,-97.25 -40.12,-145.88 -26.78,-48.65 -60.81,-92.41 -102.12,-131.3 -41.34,-38.92 -87.54,-71.74 -138.62,-98.48 -51.05,-26.76 -98.48,-40.14 -142.24,-40.14l-1364.11 0c-43.76,0 -91.19,12.18 -142.24,36.49 -51.07,24.31 -97.25,55.92 -138.62,94.83 -41.34,38.89 -75.36,82.65 -102.12,131.3 -26.74,48.63 -40.12,94.81 -40.12,138.59l0 1933.08c0,34.05 7.29,68.1 21.89,102.12 14.58,34.05 34.05,66.87 58.36,98.48 24.31,31.63 51.05,60.78 80.23,87.54 29.18,26.76 58.36,47.4 87.54,62.01 14.58,4.87 37.69,13.38 69.3,25.54 31.6,12.16 47.4,20.67 47.4,25.51l-561.68 846.18 328.26 0 408.51 -590.87 1123.37 0 408.51 590.87 328.26 0 -547.11 -831.58zm-1072.32 -2582.31c0,-14.6 6.09,-29.18 18.25,-43.78 12.16,-14.58 25.51,-21.87 40.12,-21.87l525.21 0c4.87,0 14.58,4.87 29.18,14.58 14.58,9.74 21.89,19.45 21.89,29.18l0 204.24c0,14.6 -6.09,26.76 -18.25,36.47 -12.16,9.74 -23.09,14.6 -32.83,14.6l-525.21 0c-9.74,-4.87 -17.02,-9.74 -21.89,-14.6 -9.71,-4.87 -17.02,-12.16 -21.87,-21.87 -9.74,-9.76 -14.6,-19.49 -14.6,-29.18l0 -167.77zm-525.21 554.39c0,-24.31 4.87,-51.07 14.58,-80.25 14.6,-24.36 31.63,-48.68 51.07,-72.94 14.58,-19.45 35.25,-36.47 62.01,-51.07 26.74,-14.58 54.72,-21.87 83.87,-21.87l1269.27 0c19.47,0 43.78,7.29 72.97,21.87 19.45,9.74 41.34,24.31 65.65,43.78 19.45,14.58 34.05,34.05 43.76,58.36 14.6,19.45 21.89,43.76 21.89,72.94l0 430.38c0,24.31 -7.29,47.4 -21.89,69.3 -14.58,21.89 -31.6,42.56 -51.05,62.01 -24.31,19.45 -48.65,34.05 -72.97,43.76 -19.45,9.74 -43.76,14.6 -72.94,14.6l-1247.38 0c-4.87,0 -12.18,-1.22 -21.89,-3.64 -9.74,-2.45 -17.02,-6.09 -21.89,-10.96 -48.63,-4.87 -89.97,-27.96 -124.01,-69.3 -34.02,-41.34 -51.05,-86.32 -51.05,-134.95l0 -372.02zm375.66 1685.05c-41.34,43.78 -93.61,65.65 -156.82,65.65 -63.23,0 -114.3,-21.87 -153.2,-65.65 -38.89,-43.76 -58.36,-97.25 -58.36,-160.48 0,-58.34 20.67,-108.19 62.01,-149.53 41.34,-41.34 91.19,-62.01 149.55,-62.01 63.21,0 115.5,19.45 156.82,58.36 41.34,38.89 62.01,89.97 62.01,153.2 0,63.21 -20.64,116.7 -62.01,160.46zm933.73 0c-41.34,-43.76 -62.01,-97.25 -62.01,-160.48 0,-63.21 21.89,-114.28 65.65,-153.17 43.78,-38.92 94.83,-58.36 153.2,-58.36 63.23,0 114.28,20.67 153.2,62.01 38.89,41.34 58.36,91.19 58.36,149.53 0,63.23 -19.47,116.73 -58.36,160.48 -38.92,43.78 -89.97,65.65 -153.2,65.65 -63.23,0 -115.5,-21.87 -156.84,-65.65z"/>
  <path class="fil3" d="M12351.7 8594.55l-492.19 0 0 207.42 0 73.72c0,73.67 -27.59,140.13 -79.77,192.28 -52.17,52.17 -118.68,79.77 -192.28,79.77l-545.76 0c-73.6,0 -140.08,-27.59 -192.26,-79.72 -52.22,-52.2 -79.81,-118.66 -79.81,-192.33l0 -73.72 0 -207.42 -492.17 0c-28.11,0 -52.44,10.25 -72.94,30.77 -20.52,20.57 -30.82,44.88 -30.82,72.89l0 2696.54c0,28.03 10.27,52.37 30.82,72.89 20.5,20.52 44.81,30.8 72.94,30.8l692.91 0c-2.52,-11.91 -4.08,-24.19 -4.08,-37.08l0 -170.37 0 -301.87c0,-47.09 17.17,-87.89 51.68,-122.45 34.44,-34.34 75.24,-51.66 122.45,-51.66l348.29 0c47.11,0 87.91,17.34 122.45,51.66 34.44,34.54 51.71,75.36 51.71,122.45l0 301.87 0 170.37c0,12.92 -1.52,25.17 -4.08,37.08l692.94 0c28.08,0 52.42,-10.27 72.94,-30.8 20.52,-20.55 30.82,-44.86 30.82,-72.89l0 -2696.54c0,-28.06 -10.3,-52.35 -30.82,-72.89 -20.57,-20.52 -44.86,-30.77 -72.97,-30.77zm-174.87 1958.79c-12.47,12.47 -27.2,18.66 -44.25,18.66l-125.85 0c-17.05,0 -31.82,-6.21 -44.27,-18.66 -12.45,-12.45 -18.66,-27.18 -18.66,-44.22l0 -125.85c0,-17.02 6.21,-31.77 18.66,-44.22 12.45,-12.43 27.2,-18.71 44.27,-18.71l125.85 0c17.05,0 31.77,6.29 44.25,18.71 12.45,12.47 18.69,27.2 18.69,44.22l0 125.85c0,17.02 -6.24,31.82 -18.69,44.22zm18.69 333.3l0 125.85c0,17.07 -6.24,31.85 -18.69,44.22 -12.47,12.5 -27.2,18.66 -44.25,18.66l-125.85 0.02c-17.05,0 -31.82,-6.19 -44.27,-18.69 -12.45,-12.4 -18.66,-27.15 -18.66,-44.22l0 -125.85c0,-17 6.21,-31.77 18.66,-44.22 12.45,-12.43 27.2,-18.66 44.27,-18.66l125.85 -0.02c17.05,0 31.77,6.26 44.25,18.69 12.45,12.47 18.69,27.22 18.69,44.22zm-18.69 -836.72c-12.47,12.5 -27.2,18.71 -44.25,18.71l-125.85 0c-17.05,0 -31.82,-6.21 -44.27,-18.71 -12.45,-12.4 -18.66,-27.15 -18.66,-44.22l0 -125.8c0,-17.05 6.21,-31.82 18.66,-44.25 12.45,-12.45 27.2,-18.69 44.27,-18.69l125.85 0c17.05,0 31.77,6.24 44.25,18.69 12.45,12.45 18.69,27.2 18.69,44.25l0 125.8c0,17.07 -6.24,31.85 -18.69,44.22zm0 -503.37c-12.47,12.5 -27.2,18.71 -44.25,18.71l-125.85 0c-17.05,0 -31.82,-6.21 -44.27,-18.71 -12.45,-12.43 -18.66,-27.15 -18.66,-44.22l0 -125.85c0,-17 6.21,-31.77 18.66,-44.22 12.45,-12.43 27.2,-18.69 44.27,-18.69l125.85 0c17.05,0 31.77,6.26 44.25,18.66 12.45,12.5 18.69,27.25 18.69,44.25l0 125.85c0,17.07 -6.24,31.85 -18.69,44.22zm0 -503.37c-12.47,12.5 -27.2,18.66 -44.25,18.66l-125.85 0c-17.05,0 -31.82,-6.16 -44.27,-18.66 -12.45,-12.43 -18.66,-27.15 -18.66,-44.25l0 -125.85c0,-17 6.21,-31.75 18.66,-44.22 12.45,-12.43 27.2,-18.66 44.27,-18.66l125.85 0c17.05,0 31.77,6.24 44.25,18.66 12.45,12.5 18.69,27.22 18.69,44.22l0 125.85c0,17.1 -6.24,31.87 -18.69,44.25zm-736.4 333.3c0,-17 6.21,-31.77 18.66,-44.25 12.45,-12.4 27.2,-18.66 44.22,-18.66l125.85 0c17.02,0 31.75,6.26 44.25,18.66 12.45,12.5 18.66,27.25 18.66,44.25l0 125.85c0,17.07 -6.21,31.85 -18.66,44.22 -12.5,12.5 -27.22,18.71 -44.25,18.71l-125.82 0c-17.05,0 -31.8,-6.21 -44.25,-18.71 -12.45,-12.43 -18.66,-27.15 -18.66,-44.22l0 -125.85zm0 503.42c0,-17.05 6.21,-31.82 18.66,-44.25 12.45,-12.45 27.2,-18.69 44.22,-18.69l125.85 0c17.02,0 31.75,6.24 44.25,18.69 12.45,12.45 18.66,27.2 18.66,44.25l0 125.8c0,17.07 -6.21,31.85 -18.66,44.22 -12.5,12.5 -27.22,18.71 -44.25,18.71l-125.82 0c-17.05,0 -31.8,-6.21 -44.25,-18.71 -12.45,-12.43 -18.66,-27.15 -18.66,-44.22l0 -125.8zm-773.73 673.44c-12.5,12.47 -27.22,18.66 -44.27,18.66l-125.85 0c-17.05,0 -31.8,-6.21 -44.22,-18.66 -12.5,-12.45 -18.71,-27.18 -18.71,-44.22l0 -125.85c0,-17.02 6.21,-31.77 18.71,-44.22 12.43,-12.43 27.18,-18.71 44.22,-18.71l125.85 0c17.05,0 31.77,6.29 44.27,18.71 12.43,12.47 18.66,27.2 18.66,44.22l0 125.85c0,17.02 -6.24,31.82 -18.66,44.22zm18.66 333.3l0 125.85c0,17.07 -6.24,31.85 -18.66,44.22 -12.5,12.5 -27.22,18.66 -44.27,18.66l-125.85 0.02c-17.05,0 -31.8,-6.19 -44.22,-18.69 -12.5,-12.4 -18.71,-27.15 -18.71,-44.22l0 -125.85c0,-17 6.21,-31.77 18.71,-44.22 12.43,-12.43 27.18,-18.66 44.22,-18.66l125.85 -0.02c17.05,0 31.77,6.26 44.27,18.69 12.43,12.47 18.66,27.22 18.66,44.22zm-18.66 -836.72c-12.5,12.5 -27.22,18.71 -44.27,18.71l-125.85 0c-17.05,0 -31.8,-6.21 -44.22,-18.71 -12.5,-12.4 -18.71,-27.15 -18.71,-44.22l0 -125.8c0,-17.05 6.21,-31.82 18.71,-44.25 12.43,-12.45 27.18,-18.69 44.22,-18.69l125.85 0c17.05,0 31.77,6.24 44.27,18.69 12.43,12.45 18.66,27.2 18.66,44.25l0 125.8c0,17.07 -6.24,31.85 -18.66,44.22zm0 -503.37c-12.5,12.5 -27.22,18.71 -44.27,18.71l-125.85 0c-17.05,0 -31.8,-6.21 -44.22,-18.71 -12.5,-12.43 -18.71,-27.15 -18.71,-44.22l0 -125.85c0,-17 6.21,-31.77 18.71,-44.22 12.43,-12.43 27.18,-18.69 44.22,-18.69l125.85 0c17.05,0 31.77,6.26 44.27,18.66 12.43,12.5 18.66,27.25 18.66,44.25l0 125.85c0,17.07 -6.24,31.85 -18.66,44.22zm0 -503.37c-12.5,12.5 -27.22,18.66 -44.27,18.66l-125.85 0c-17.05,0 -31.8,-6.16 -44.22,-18.66 -12.5,-12.43 -18.71,-27.15 -18.71,-44.25l0 -125.85c0,-17 6.21,-31.75 18.71,-44.22 12.43,-12.43 27.18,-18.66 44.22,-18.66l125.85 0c17.05,0 31.77,6.24 44.27,18.66 12.43,12.5 18.66,27.22 18.66,44.22l0 125.85c0,17.1 -6.24,31.87 -18.66,44.25zm522.03 1465.94c0,17.05 -6.24,31.82 -18.66,44.22 -12.5,12.45 -27.22,18.66 -44.27,18.66l-125.85 0c-17.05,0 -31.77,-6.21 -44.22,-18.66 -12.47,-12.45 -18.66,-27.18 -18.66,-44.22l0 -125.85c0,-17.02 6.19,-31.77 18.66,-44.25 12.45,-12.4 27.18,-18.69 44.22,-18.69l125.85 0c17,0 31.77,6.29 44.27,18.69 12.43,12.5 18.66,27.22 18.66,44.25l0 125.85zm0 -503.42c0,17.1 -6.24,31.85 -18.66,44.22 -12.5,12.5 -27.22,18.71 -44.27,18.71l-125.85 0c-17.05,0 -31.77,-6.21 -44.22,-18.71 -12.47,-12.4 -18.66,-27.15 -18.66,-44.22l0 -125.8c0,-17.05 6.19,-31.82 18.66,-44.25 12.45,-12.45 27.18,-18.69 44.22,-18.69l125.85 0c17,0 31.77,6.24 44.27,18.69 12.43,12.45 18.66,27.2 18.66,44.25l0 125.8zm0 -503.37c0,17.07 -6.24,31.85 -18.66,44.22 -12.5,12.5 -27.22,18.71 -44.27,18.71l-125.85 0c-17.05,0 -31.77,-6.21 -44.22,-18.71 -12.47,-12.43 -18.66,-27.15 -18.66,-44.22l0 -125.85c0,-17 6.19,-31.77 18.66,-44.22 12.45,-12.43 27.18,-18.69 44.22,-18.69l125.85 0c17,0 31.77,6.26 44.27,18.66 12.43,12.5 18.66,27.25 18.66,44.25l0 125.85zm440.48 1069.68l-125.85 0c-17.05,0 -31.77,-6.21 -44.25,-18.66 -12.45,-12.45 -18.66,-27.18 -18.66,-44.22l0 -125.85c0,-17.02 6.21,-31.77 18.66,-44.22 12.47,-12.43 27.2,-18.71 44.25,-18.71l125.85 0c17,0 31.75,6.29 44.22,18.71 12.45,12.47 18.66,27.2 18.66,44.22l0 125.85c0,17.05 -6.21,31.82 -18.66,44.22 -12.5,12.45 -27.22,18.66 -44.22,18.66z"/>
  <path class="fil3" d="M10937.2 9000.72c29.74,25.32 64.38,38.7 104.49,38.7l131.55 0 282.74 0 131.5 0c40.09,0 74.73,-13.38 104.52,-38.7 3.72,-3.16 7.61,-5.77 11.18,-9.32 32.04,-32.02 48.06,-70.59 48.06,-115.7l0 -73.72 0 -207.42 0 -264.61c0,-45.1 -16,-83.68 -48.06,-115.7 -32.02,-32.04 -70.59,-48.06 -115.67,-48.06l-545.81 0c-45.1,0 -83.68,16.02 -115.7,48.06 -32.02,32.02 -48.06,70.59 -48.06,115.7l0 264.61 0 207.4 0 73.75c0,45.1 16,83.65 48.06,115.7 3.57,3.55 7.51,6.14 11.2,9.32zm86.3 -406.16l0 -246.46c0,-9.81 3.6,-18.37 10.79,-25.56 7.19,-7.17 15.75,-10.79 25.56,-10.79l72.77 0c9.86,0 18.37,3.6 25.56,10.79 7.19,7.22 10.81,15.75 10.81,25.56l0 181.94 291.08 0 0 -181.94c0,-9.81 3.6,-18.37 10.79,-25.56 7.19,-7.17 15.75,-10.79 25.56,-10.79l72.77 0c9.86,0 18.39,3.6 25.56,10.79 7.19,7.22 10.81,15.75 10.81,25.56l0 246.46 0 207.42 0 8.22 0 47.31c0,9.86 -3.62,18.39 -10.81,25.56 -7.22,7.24 -15.73,10.81 -25.56,10.81l-72.75 0c-9.88,0 -18.39,-3.57 -25.59,-10.81 -7.22,-7.17 -10.79,-15.7 -10.79,-25.56l0 -29.5 0 -26.03 0 -126.39 -291.01 0 0 126.39 0 26.03 0 29.5c0,9.86 -3.62,18.39 -10.81,25.56 -7.22,7.24 -15.73,10.81 -25.56,10.81l-72.77 0c-9.86,0 -18.37,-3.57 -25.56,-10.81 -7.22,-7.17 -10.79,-15.7 -10.79,-25.56l0 -47.31 0 -8.22 0 -207.42 -0.07 0z"/>
 </g>
</svg>
